<?xml version="1.0" encoding="UTF-8"?><svg id="Layer_1" xmlns="http://www.w3.org/2000/svg" viewBox="0 0 7.71 7.63"><defs><style>.cls-1{fill:#cc5656;}</style></defs><path class="cls-1" d="M7.71,4.44s-.02,.1-.04,.14c-.06,.2-.17,.37-.33,.5-.94,.77-1.89,1.54-2.83,2.31-.28,.22-.58,.31-.93,.2-.12-.04-.24-.11-.34-.19-.96-.78-1.92-1.56-2.87-2.34C.12,4.85-.01,4.59,0,4.26c.02-.66,.73-1.1,1.33-.83,.09,.04,.18,.1,.26,.16,.74,.6,1.48,1.2,2.21,1.8,.02,.02,.04,.03,.07,.05,.21-.17,.41-.33,.61-.5,.55-.45,1.1-.9,1.65-1.35,.55-.44,1.33-.22,1.54,.44,.02,.05,.03,.11,.04,.17,0,.08,0,.15,0,.23Z"/><path class="cls-1" d="M7.71,1.09c-.02,.07-.04,.15-.06,.22-.06,.16-.16,.3-.3,.41-.95,.78-1.91,1.56-2.86,2.33-.39,.32-.87,.31-1.26,0-.94-.77-1.88-1.54-2.83-2.3C.14,1.53-.02,1.26,0,.91,.02,.55,.2,.27,.53,.11c.32-.16,.65-.15,.94,.06,.32,.23,.62,.49,.92,.74,.47,.38,.94,.77,1.41,1.15,.02,.02,.04,.03,.06,.05,.2-.16,.4-.33,.6-.49,.55-.45,1.1-.9,1.66-1.35,.55-.45,1.34-.23,1.54,.44,.02,.05,.03,.11,.04,.17v.23Z"/></svg>