<?xml version="1.0" encoding="UTF-8"?><svg id="Layer_1" xmlns="http://www.w3.org/2000/svg" viewBox="0 0 7.6 7.62"><defs><style>.cls-1{fill:#3210e0;}</style></defs><path class="cls-1" d="M4.36,1.63l1.6,1.62s-.04,.05-.07,.07c-1.03,1.03-2.05,2.05-3.08,3.08-.05,.05-.1,.09-.15,.12-.71,.36-1.42,.71-2.14,1.06-.22,.11-.48-.03-.52-.27-.01-.08,0-.18,.03-.25,.35-.71,.7-1.42,1.05-2.12,.02-.05,.06-.1,.1-.14,1.04-1.05,2.09-2.09,3.13-3.14,.01-.01,.03-.02,.04-.04Z"/><path class="cls-1" d="M6.51,2.68l-1.6-1.6s.03-.04,.05-.05c.22-.23,.44-.46,.67-.68,.32-.32,.71-.42,1.14-.3,.43,.13,.7,.42,.8,.86,.08,.36,0,.7-.25,.97-.25,.28-.54,.53-.81,.8Z"/></svg>