<?xml version="1.0" encoding="UTF-8"?><svg id="Layer_5" xmlns="http://www.w3.org/2000/svg" viewBox="0 0 10.03 11.49"><defs><style>.cls-1{fill:#3210e0;}</style></defs><path class="cls-1" d="M8.54,0H1.5C.63,0,0,.62,0,1.49V10c0,.86,.63,1.49,1.49,1.49h7.05c.86,0,1.49-.64,1.49-1.49V1.49c0-.86-.63-1.49-1.49-1.49ZM2.29,3.18c.09-.07,.21-.13,.32-.13,.9-.01,4.44-.01,5.34-.01,.28,0,.5,.24,.49,.53,0,.28-.21,.51-.49,.52H2.61c-.21,0-.4-.15-.47-.34-.07-.21-.02-.44,.15-.57Zm-.15,2.33c.07-.22,.27-.36,.53-.36H7.91c.24,0,.41,.11,.5,.33,.08,.21,.04,.4-.11,.56-.12,.13-.27,.17-.45,.17H2.67c-.39-.01-.65-.34-.53-.7Zm5.78,2.81H2.66c-.38,0-.64-.35-.52-.69,.06-.19,.19-.31,.39-.35,.05-.01,.11-.02,.16-.02H7.86c.24,0,.43,.09,.54,.31,.16,.35-.09,.74-.48,.75Z"/></svg>