<?xml version="1.0" encoding="UTF-8"?><svg id="Layer_1" xmlns="http://www.w3.org/2000/svg" viewBox="0 0 34.78 34.8"><defs><style>.cls-1{fill:#3210e0;}</style></defs><path class="cls-1" d="M17.38,0C7.77,0,0,7.79,0,17.4s7.78,17.4,17.39,17.4,17.4-7.79,17.4-17.4S26.99,0,17.38,0Zm7.72,18.13l-6.43,.56-.55,6.39c0,.44-.33,.77-.74,.77s-.73-.32-.73-.73l-.57-6.42-6.38-.57c-.44,0-.76-.32-.76-.73s.32-.74,.73-.74l6.41-.55,.57-6.39c0-.43,.33-.77,.73-.77s.74,.33,.74,.73l.56,6.42,6.38,.56c.43,0,.77,.33,.77,.74s-.33,.73-.73,.73Z"/></svg>