<?xml version="1.0" encoding="UTF-8"?><svg id="Layer_1" xmlns="http://www.w3.org/2000/svg" viewBox="0 0 4.82 6.28"><defs><style>.cls-1{fill:#606060;}</style></defs><path class="cls-1" d="M4.61,4.89c-.44,.95-1.22,1.28-1.74,1.38,.12-.08,.24-.19,.32-.38,.18-.39,0-.81-.13-1.01-.02-.03-.06-.02-.09,0-.04,.06-.1,.13-.18,.19,0,0,.07-.45-.45-.92-.03-.02-.07,0-.07,.03,0,.05,0,.12-.03,.17-.04,.12-.15,.32-.3,.48-.16,.17-.42,.52-.39,.79,.02,.22,.13,.49,.38,.65C.59,6.06,.07,4.97,0,4.16c-.08-.76,.64-1.75,1.09-2.22,.43-.45,.74-1,.85-1.34,.05-.16,.08-.34,.08-.49,0-.1,.12-.15,.2-.09,1.48,1.33,1.27,2.58,1.27,2.58,.22-.16,.4-.36,.5-.52,.06-.09,.18-.12,.24-.03,.36,.56,.88,1.72,.38,2.82Z"/></svg>